<svg xmlns="http://www.w3.org/2000/svg" viewBox="0 0 800 600">
<defs><linearGradient id="bg" x1="0" y1="0" x2="0" y2="1">
<stop offset="0" stop-color="#f4fdf8"/><stop offset="1" stop-color="#d7f2e2"/>
</linearGradient></defs>
<rect width="800" height="600" fill="url(#bg)"/>
<circle cx="120" cy="130" r="66" fill="#5ce39d" opacity="0.45"/>
<circle cx="690" cy="470" r="56" fill="#5ce39d" opacity="0.35"/>
<rect x="0" y="502" width="800" height="98" fill="#0b7a4f" opacity="0.12"/>
<rect x="150" y="198" width="500" height="304" rx="14" fill="#ffffff" stroke="#0b7a4f" stroke-width="10"/>
<rect x="150" y="198" width="500" height="70" fill="#09090b"/>
<rect x="150" y="248" width="500" height="20" fill="#09090b"/>
<circle cx="235" cy="233" r="15" fill="#5ce39d"/>
<circle cx="400" cy="233" r="15" fill="#5ce39d"/>
<circle cx="565" cy="233" r="15" fill="#ffffff" opacity="0.7"/>
<rect x="182" y="300" width="276" height="172" rx="10" fill="#e9fbf1"/>
<rect x="182" y="352" width="276" height="10" fill="#0b7a4f" opacity="0.5"/>
<rect x="182" y="404" width="276" height="10" fill="#0b7a4f" opacity="0.5"/>
<g><rect x="204" y="308" width="40" height="44" rx="6" fill="#0b7a4f"/><rect x="254" y="308" width="40" height="44" rx="6" fill="#5ce39d"/><rect x="304" y="308" width="40" height="44" rx="6" fill="#09090b"/></g>
<g><rect x="204" y="362" width="40" height="42" rx="6" fill="#5ce39d"/><rect x="254" y="362" width="40" height="42" rx="6" fill="#09090b"/><rect x="304" y="362" width="40" height="42" rx="6" fill="#0b7a4f"/></g>
<g><rect x="204" y="414" width="40" height="42" rx="6" fill="#09090b"/><rect x="254" y="414" width="40" height="42" rx="6" fill="#0b7a4f"/><rect x="304" y="414" width="40" height="42" rx="6" fill="#5ce39d"/></g>
<rect x="482" y="300" width="136" height="202" rx="10" fill="#0b7a4f"/>
<rect x="498" y="318" width="104" height="118" rx="8" fill="#ffffff" opacity="0.9"/>
<circle cx="592" cy="466" r="9" fill="#ffffff"/>
<path d="M118 470 h104 l-14 66 h-76 Z" fill="#0b7a4f"/>
<path d="M132 470 a38 38 0 0 1 76 0" stroke="#09090b" stroke-width="10" fill="none" stroke-linecap="round"/>
</svg>
