<svg xmlns="http://www.w3.org/2000/svg" viewBox="0 0 800 600">
<defs><linearGradient id="bg" x1="0" y1="0" x2="0" y2="1">
<stop offset="0" stop-color="#f4fdf8"/><stop offset="1" stop-color="#d7f2e2"/>
</linearGradient></defs>
<rect width="800" height="600" fill="url(#bg)"/>
<g fill="#5ce39d" opacity="0.8">
<rect x="552" y="90" width="26" height="56" rx="9"/>
<rect x="552" y="90" width="26" height="56" rx="9" transform="rotate(45 565 118)"/>
<rect x="552" y="90" width="26" height="56" rx="9" transform="rotate(90 565 118)"/>
<rect x="552" y="90" width="26" height="56" rx="9" transform="rotate(135 565 118)"/>
<rect x="552" y="90" width="26" height="56" rx="9" transform="rotate(180 565 118)"/>
<rect x="552" y="90" width="26" height="56" rx="9" transform="rotate(225 565 118)"/>
<rect x="552" y="90" width="26" height="56" rx="9" transform="rotate(270 565 118)"/>
<rect x="552" y="90" width="26" height="56" rx="9" transform="rotate(315 565 118)"/>
</g>
<circle cx="565" cy="173" r="72" fill="#5ce39d"/>
<circle cx="565" cy="173" r="30" fill="#f4fdf8"/>
<circle cx="150" cy="470" r="52" fill="#5ce39d" opacity="0.4"/>
<rect x="150" y="200" width="460" height="270" rx="22" fill="#09090b"/>
<circle cx="196" cy="238" r="11" fill="#5ce39d"/>
<circle cx="228" cy="238" r="11" fill="#ffffff" opacity="0.7"/>
<circle cx="260" cy="238" r="11" fill="#ffffff" opacity="0.35"/>
<rect x="150" y="264" width="460" height="8" fill="#ffffff" opacity="0.15"/>
<polyline points="196,330 232,330" stroke="#5ce39d" stroke-width="13" stroke-linecap="round"/>
<rect x="252" y="319" width="120" height="22" rx="11" fill="#ffffff" opacity="0.9"/>
<rect x="196" y="368" width="220" height="20" rx="10" fill="#ffffff" opacity="0.45"/>
<rect x="196" y="402" width="150" height="20" rx="10" fill="#5ce39d" opacity="0.8"/>
<rect x="452" y="360" width="112" height="76" rx="12" fill="#0b7a4f"/>
<rect x="468" y="378" width="80" height="14" rx="7" fill="#ffffff"/>
<rect x="468" y="400" width="52" height="14" rx="7" fill="#ffffff" opacity="0.6"/>
<circle cx="622" cy="428" r="62" fill="#0b7a4f" stroke="#ffffff" stroke-width="10"/>
<polyline points="602,428 616,442 644,410" stroke="#ffffff" stroke-width="14" fill="none" stroke-linecap="round" stroke-linejoin="round"/>
</svg>
